<?xml version="1.0" encoding="utf-8"?>
<!-- Generator: Adobe Illustrator 16.0.4, SVG Export Plug-In . SVG Version: 6.00 Build 0)  -->
<!DOCTYPE svg PUBLIC "-//W3C//DTD SVG 1.1//EN" "http://www.w3.org/Graphics/SVG/1.1/DTD/svg11.dtd">
<svg version="1.1" id="Primary" xmlns="http://www.w3.org/2000/svg" xmlns:xlink="http://www.w3.org/1999/xlink" x="0px" y="0px"
	 width="1479.686px" height="243.779px" viewBox="0 0 1479.686 243.779" enable-background="new 0 0 1479.686 243.779"
	 xml:space="preserve">
<g id="Logo_1_">
	<g id="Icon_1_">
		<g id="Squares_1_">
			<path fill="#B69245" d="M56.672,192.635c0,3.152-2.535,5.709-5.664,5.709H39.68c-3.129,0-5.664-2.557-5.664-5.709v-11.42
				c0-3.152,2.535-5.711,5.664-5.711h11.328c3.129,0,5.664,2.559,5.664,5.711V192.635z"/>
			<path fill="#B69245" d="M99.152,204.053c0,3.154-2.535,5.709-5.662,5.709H70.832c-3.127,0-5.664-2.555-5.664-5.709v-22.838
				c0-3.152,2.537-5.711,5.664-5.711H93.49c3.127,0,5.662,2.559,5.662,5.711V204.053z"/>
			<path fill="#B69245" d="M130.305,201.197c0,3.154-2.535,5.709-5.664,5.709h-11.328c-3.127,0-5.664-2.555-5.664-5.709v-11.418
				c0-3.154,2.537-5.709,5.664-5.709h11.328c3.129,0,5.664,2.555,5.664,5.709V201.197z"/>
			<path fill="#B69245" d="M99.152,161.232c0,3.152-2.535,5.709-5.664,5.709H59.504c-3.129,0-5.664-2.557-5.664-5.709v-34.256
				c0-3.154,2.535-5.709,5.664-5.709h33.984c3.129,0,5.664,2.555,5.664,5.709V161.232z"/>
			<path fill="#B69245" d="M99.152,106.994c0,3.152-2.535,5.709-5.664,5.709H82.16c-3.127,0-5.664-2.557-5.664-5.709v-11.42
				c0-3.152,2.537-5.709,5.664-5.709h11.328c3.129,0,5.664,2.557,5.664,5.709V106.994z"/>
			<path fill="#B69245" d="M141.633,169.795c0,3.154-2.535,5.709-5.662,5.709h-22.658c-3.127,0-5.664-2.555-5.664-5.709v-22.836
				c0-3.152,2.537-5.709,5.664-5.709h22.658c3.127,0,5.662,2.557,5.662,5.709V169.795z"/>
			<path fill="#B69245" d="M164.291,126.977c0,3.152-2.537,5.709-5.666,5.709h-45.312c-3.127,0-5.664-2.557-5.664-5.709V81.301
				c0-3.152,2.537-5.709,5.664-5.709h45.312c3.129,0,5.666,2.557,5.666,5.709V126.977z"/>
			<path fill="#B69245" d="M218.1,204.053c0,3.154-2.537,5.709-5.664,5.709h-56.641c-3.129,0-5.666-2.555-5.666-5.709v-57.094
				c0-3.152,2.537-5.709,5.666-5.709h56.641c3.127,0,5.664,2.557,5.664,5.709V204.053z"/>
		</g>
		<path id="Clouds_1_" fill="#F0F1F6" d="M226.596,186.924v17.129c0,3.154,2.535,5.709,5.664,5.709l31.152,0.002l0.26-0.002
			c29.719,0,53.809-24.283,53.809-54.238c0-25.916-18.037-47.574-42.146-52.947c-8.969-39.273-43.869-68.561-85.555-68.561
			c-27.646,0-52.307,12.881-68.398,33.012h0.428h45.312c3.129,0,5.666,2.557,5.666,5.709v45.676v-8.564v17.129
			c0,3.154,2.535,5.709,5.664,5.709h16.992h-8.496h33.984c3.127,0,5.664,2.557,5.664,5.709v57.094"/>
	</g>
	<g id="Typography_1_">
		<g id="Cloud7Labs_1_">
			<g id="Cloud_1_">
				<path fill="#B69245" d="M431.791,123.824c0.789-0.396,1.898-0.592,3.332-0.592s2.67,0.564,3.707,1.691
					c1.035,1.127,1.553,2.426,1.553,3.898c0,2.645-1.09,4.504-3.258,5.584c-4.645,2.547-9.607,4.703-14.889,6.465
					c-5.283,1.764-11.607,2.645-18.961,2.645c-7.361,0-14.199-1.201-20.52-3.6s-11.801-5.9-16.445-10.508
					c-9.875-9.604-14.814-22.49-14.814-38.66c0-16.166,4.939-29.049,14.814-38.652c9.58-9.412,21.924-14.115,37.037-14.115
					c7.309,0,13.605,0.879,18.889,2.645c5.281,1.766,9.332,3.41,12.145,4.928c2.818,1.518,4.521,2.742,5.113,3.67
					c0.592,0.936,0.889,2.115,0.889,3.525c0,1.426-0.518,2.701-1.553,3.824c-1.037,1.127-2.273,1.695-3.707,1.695
					s-2.543-0.195-3.332-0.588c-3.951-2.059-8.002-3.725-12.148-4.996c-4.146-1.281-9.311-1.914-15.48-1.914
					c-6.172,0-11.756,1.033-16.738,3.088c-4.988,2.059-9.164,4.904-12.518,8.527c-6.621,7.148-9.928,16.607-9.928,28.363
					c0,11.76,3.307,21.219,9.928,28.367c7.203,7.746,17.133,11.611,29.775,11.611c5.826,0,10.814-0.633,14.961-1.904
					C423.789,127.545,427.84,125.883,431.791,123.824z"/>
				<path fill="#B69245" d="M491.047,35.922c1.283-1.271,2.887-1.906,4.816-1.906c1.924,0,3.527,0.635,4.812,1.906
					c1.285,1.279,1.924,2.891,1.924,4.852v95.398c0,1.857-0.639,3.428-1.924,4.699s-2.889,1.914-4.812,1.914
					c-1.93,0-3.533-0.643-4.816-1.914s-1.924-2.842-1.924-4.699V40.773C489.123,38.812,489.764,37.201,491.047,35.922z"/>
				<path fill="#B69245" d="M590.152,65.617c11.459,0,20.645,3.572,27.559,10.73c6.912,7.25,10.367,16.658,10.367,28.213
					c0,11.564-3.455,20.973-10.367,28.225c-6.914,7.158-16.1,10.73-27.559,10.73c-11.551,0-20.738-3.572-27.551-10.73
					c-6.914-7.148-10.371-16.553-10.371-28.225c0-11.652,3.457-21.064,10.371-28.213C569.414,69.189,578.602,65.617,590.152,65.617z
					 M573.637,125.217c2.318,2.109,4.936,3.652,7.852,4.629c2.914,0.982,5.781,1.473,8.594,1.473c2.814,0,5.678-0.49,8.59-1.473
					c2.916-0.977,5.557-2.496,7.926-4.549c5.336-4.807,8.002-11.766,8.002-20.875c0-8.822-2.666-15.682-8.002-20.586
					c-4.443-4.01-9.922-6.021-16.445-6.021c-10.662,0-18.072,4.754-22.219,14.26c-1.482,3.434-2.223,7.564-2.223,12.418
					c0,4.848,0.74,8.992,2.223,12.42C569.414,120.346,571.314,123.111,573.637,125.217z"/>
				<path fill="#B69245" d="M705.703,131.174c8.691,0,16.791-4.705,24.301-14.117V72.961c0-1.857,0.662-3.428,1.996-4.699
					c1.332-1.271,2.939-1.914,4.816-1.914c1.872,0,3.452,0.643,4.739,1.914c1.279,1.271,1.924,2.842,1.924,4.699v63.057
					c0,1.965-0.645,3.582-1.924,4.854c-1.287,1.271-2.867,1.914-4.739,1.914c-1.877,0-3.484-0.643-4.816-1.914
					c-1.334-1.271-1.996-2.889-1.996-4.854V130c-3.957,4.113-7.363,7.004-10.225,8.662c-5.629,3.232-10.988,4.854-16.072,4.854
					c-5.09,0-9.258-0.76-12.521-2.273c-3.26-1.518-6.023-3.604-8.295-6.25c-4.643-5.383-6.961-12.15-6.961-20.287V72.961
					c0-1.857,0.664-3.428,1.998-4.699s2.939-1.914,4.816-1.914c1.873,0,3.453,0.643,4.738,1.914s1.926,2.842,1.926,4.699v40.277
					c0,5.584,1.262,9.971,3.779,13.156S699.877,131.174,705.703,131.174z"/>
				<path fill="#B69245" d="M853.106,132.348c-7.311,7.441-15.756,11.168-25.336,11.168c-9.479,0-17.678-3.324-24.59-9.994
					c-7.504-7.346-11.26-16.996-11.26-28.961c0-11.754,3.756-21.357,11.26-28.801c6.812-6.762,15.01-10.143,24.59-10.143
					s18.025,3.725,25.336,11.168V40.773c0-1.961,0.639-3.572,1.926-4.852c1.279-1.271,2.885-1.906,4.814-1.906
					c1.928,0,3.527,0.635,4.812,1.906c1.283,1.279,1.926,2.891,1.926,4.852v95.398c0,1.857-0.643,3.428-1.926,4.699
					c-1.285,1.271-2.885,1.914-4.812,1.914c-1.93,0-3.535-0.643-4.814-1.914c-1.287-1.271-1.926-2.842-1.926-4.699V132.348z
					 M853.106,89.137c-6.719-7.355-14.52-11.029-23.408-11.029c-11.258,0-18.715,4.996-22.369,14.992
					c-1.287,3.334-1.928,7.158-1.928,11.461c0,8.436,2.318,15.045,6.963,19.852c4.246,4.41,10.025,6.613,17.334,6.613
					c8.889,0,16.689-3.676,23.408-11.029V89.137z"/>
			</g>
			<path id="_x37__1_" fill="#B69245" d="M989.541,41.658c1.58,1.469,2.373,3.307,2.373,5.506c0,2.213-0.496,4.393-1.484,6.543
				l-42.071,85.402c-1.387,2.445-3.283,3.676-5.705,3.676s-4.248-0.615-5.48-1.836c-1.236-1.225-1.852-2.627-1.852-4.191
				s0.295-2.939,0.891-4.117l40.739-80.404h-53.776c-1.777,0-3.287-0.605-4.52-1.836c-1.238-1.225-1.854-2.725-1.854-4.484
				c0-1.766,0.615-3.283,1.854-4.551c1.232-1.275,2.742-1.914,4.52-1.914h60.442C985.988,39.451,987.961,40.188,989.541,41.658z"/>
			<g id="Labs_1_">
				<path fill="#F0F1F6" d="M1111.686,130.652c1.332,1.326,1.996,2.92,1.996,4.777c0,1.863-0.664,3.434-1.996,4.705
					c-1.334,1.275-2.941,1.914-4.818,1.914h-52.59c-2.57,0-4.764-0.904-6.594-2.721c-1.824-1.811-2.738-3.99-2.738-6.543V45.479
					c0-1.859,0.643-3.451,1.926-4.779c1.283-1.326,2.863-1.979,4.74-1.979c1.873,0,3.484,0.652,4.814,1.979
					c1.334,1.328,2.002,2.92,2.002,4.779v83.193h48.439C1108.744,128.672,1110.352,129.334,1111.686,130.652z"/>
				<path fill="#F0F1F6" d="M1160.055,70.908c8.293-3.531,16.887-5.291,25.773-5.291c10.074,0,17.873,3.031,23.406,9.109
					c4.939,5.289,7.408,11.908,7.408,19.84v41.605c0,1.857-0.668,3.428-2,4.699c-1.334,1.271-2.939,1.914-4.816,1.914
					s-3.455-0.643-4.74-1.914s-1.926-2.842-1.926-4.699v-3.824c-2.666,2.742-6.246,5.291-10.74,7.643s-10.197,3.525-17.109,3.525
					c-6.816,0-12.494-1.961-17.033-5.877c-4.746-4.117-7.115-9.502-7.115-16.172c0-7.246,2.766-12.934,8.297-17.045
					c6.023-4.51,14.615-6.764,25.777-6.764h17.924V96.48c0-6.566-1.629-11.242-4.889-14.037c-3.256-2.791-8.244-4.191-14.961-4.191
					c-5.729,0-12.299,1.178-19.705,3.529c-0.789,0.195-1.68,0.293-2.662,0.293c-0.99,0-2.029-0.516-3.111-1.541
					c-1.09-1.029-1.631-2.621-1.631-4.773C1156.201,73.604,1157.482,71.984,1160.055,70.908z M1164.645,119.996
					c0,7.848,5.232,11.764,15.705,11.764c4.639,0,8.963-1.127,12.959-3.381c4-2.25,7.283-4.801,9.852-7.643v-12.348h-16.146
					c-7.014,0-12.494,0.887-16.443,2.646C1166.617,112.801,1164.645,115.785,1164.645,119.996z"/>
				<path fill="#F0F1F6" d="M1282.562,76.785c7.311-7.443,15.754-11.168,25.336-11.168c9.576,0,17.777,3.381,24.59,10.143
					c7.508,7.443,11.262,17.047,11.262,28.801c0,11.965-3.754,21.615-11.262,28.961c-6.912,6.67-15.135,9.994-24.664,9.994
					c-9.531,0-17.951-3.727-25.262-11.168v3.824c0,1.857-0.641,3.428-1.924,4.699c-1.285,1.271-2.887,1.914-4.816,1.914
					c-1.924,0-3.531-0.643-4.812-1.914c-1.285-1.271-1.924-2.842-1.924-4.699V40.773c0-1.961,0.639-3.572,1.924-4.852
					c1.281-1.271,2.889-1.906,4.812-1.906c1.93,0,3.531,0.635,4.816,1.906c1.283,1.279,1.924,2.891,1.924,4.852V76.785z
					 M1282.562,119.996c6.717,7.354,14.52,11.029,23.412,11.029c11.254,0,18.76-5.002,22.516-14.992
					c1.186-3.33,1.779-7.16,1.779-11.473c0-8.42-2.273-15.039-6.816-19.84c-4.348-4.41-10.172-6.613-17.479-6.613
					c-8.893,0-16.695,3.674-23.412,11.029V119.996z"/>
				<path fill="#F0F1F6" d="M1416.188,131.174c10.965,0,16.443-3.479,16.443-10.438c0-2.156-1.084-3.795-3.256-4.922
					c-2.178-1.129-4.918-2.135-8.223-3.014c-3.312-0.881-6.891-1.793-10.74-2.721c-3.854-0.932-7.434-2.23-10.738-3.898
					c-3.312-1.668-6.055-3.842-8.225-6.543c-2.174-2.691-3.264-6-3.264-9.916c0-3.922,0.594-7.303,1.785-10.145
					c1.182-2.844,2.959-5.289,5.33-7.348c5.232-4.416,12.492-6.613,21.775-6.613c7.406,0,14.568,1.221,21.482,3.674
					c1.379,0.484,2.443,1.271,3.182,2.352c0.744,1.082,1.111,2.279,1.111,3.596c0,1.328-0.568,2.576-1.701,3.754
					c-1.135,1.174-2.246,1.76-3.334,1.76s-2.422-0.246-4-0.736c-4.736-1.467-9.926-2.201-15.555-2.201s-9.904,0.977-12.814,2.938
					c-2.914,1.967-4.369,4.312-4.369,7.057c0,2.748,1.113,4.779,3.334,6.096c2.223,1.328,4.963,2.428,8.221,3.307
					c3.26,0.887,6.84,1.766,10.74,2.65c3.9,0.881,7.482,2.109,10.742,3.676c7.699,3.922,11.555,9.994,11.555,18.225
					c0,6.273-2.373,11.373-7.111,15.289c-5.137,4.312-12.299,6.465-21.482,6.465c-9.973,0-18.961-2.207-26.959-6.613
					c-1.682-1.178-2.523-2.645-2.523-4.41s0.545-3.256,1.631-4.486c1.088-1.219,2.273-1.83,3.557-1.83s2.814,0.387,4.592,1.174
					C1403.1,129.902,1409.375,131.174,1416.188,131.174z"/>
			</g>
		</g>
		<g id="Slogan_1_">
			<g id="Creative_1_">
				<path fill="#C4C5D2" d="M376.777,195.176c0.246,0,0.467,0.098,0.67,0.289l1.758,1.83c-1.357,1.5-3.002,2.67-4.934,3.508
					c-1.936,0.842-4.266,1.262-6.99,1.262c-2.389,0-4.553-0.396-6.494-1.184c-1.943-0.787-3.6-1.891-4.969-3.311
					c-1.371-1.42-2.436-3.121-3.189-5.109c-0.756-1.984-1.133-4.168-1.133-6.553c0-2.381,0.404-4.564,1.215-6.553
					c0.809-1.984,1.943-3.693,3.408-5.119c1.461-1.426,3.217-2.533,5.256-3.32c2.043-0.787,4.293-1.18,6.76-1.18
					c2.434,0,4.533,0.359,6.297,1.076c1.764,0.723,3.332,1.705,4.703,2.936l-1.457,1.969c-0.107,0.145-0.23,0.266-0.369,0.363
					c-0.141,0.094-0.338,0.141-0.602,0.141c-0.199,0-0.412-0.066-0.635-0.205c-0.223-0.141-0.488-0.316-0.797-0.521
					s-0.672-0.424-1.086-0.662c-0.416-0.236-0.91-0.455-1.479-0.66c-0.572-0.205-1.234-0.383-1.988-0.521
					c-0.754-0.137-1.623-0.205-2.611-0.205c-1.771,0-3.395,0.287-4.865,0.871c-1.471,0.582-2.738,1.406-3.801,2.482
					c-1.062,1.07-1.891,2.379-2.482,3.926c-0.594,1.541-0.891,3.273-0.891,5.184c0,1.975,0.297,3.73,0.891,5.277
					c0.592,1.545,1.4,2.85,2.426,3.916c1.023,1.066,2.236,1.877,3.639,2.436c1.4,0.559,2.912,0.838,4.529,0.838
					c0.986,0,1.873-0.055,2.658-0.162c0.785-0.111,1.514-0.285,2.184-0.518c0.67-0.236,1.293-0.535,1.873-0.895
					c0.576-0.363,1.156-0.791,1.742-1.295C376.277,195.287,376.531,195.176,376.777,195.176z"/>
				<path fill="#C4C5D2" d="M389.07,201.705v-22.35h2.357c0.445,0,0.754,0.084,0.924,0.242c0.17,0.162,0.285,0.441,0.346,0.838
					l0.277,3.488c0.803-1.561,1.791-2.775,2.969-3.652c1.18-0.875,2.562-1.312,4.15-1.312c0.646,0,1.232,0.07,1.754,0.209
					c0.523,0.141,1.01,0.336,1.455,0.582l-0.529,2.939c-0.107,0.363-0.348,0.549-0.717,0.549c-0.215,0-0.547-0.064-0.994-0.209
					c-0.447-0.139-1.07-0.209-1.873-0.209c-1.43,0-2.629,0.4-3.592,1.191c-0.965,0.793-1.77,1.951-2.416,3.465v14.229H389.07z"/>
				<path fill="#C4C5D2" d="M421.584,179c1.4,0,2.693,0.229,3.881,0.676s2.211,1.096,3.074,1.943
					c0.861,0.842,1.535,1.885,2.021,3.133c0.486,1.244,0.729,2.656,0.729,4.248c0,0.619-0.07,1.029-0.207,1.234
					c-0.139,0.205-0.402,0.307-0.787,0.307h-15.576c0.033,1.416,0.23,2.643,0.604,3.689c0.369,1.043,0.877,1.914,1.523,2.613
					c0.648,0.699,1.418,1.221,2.311,1.564c0.895,0.346,1.895,0.521,3.004,0.521c1.033,0,1.92-0.111,2.67-0.344
					c0.746-0.229,1.391-0.477,1.928-0.736c0.541-0.27,0.992-0.512,1.354-0.74c0.363-0.229,0.674-0.34,0.938-0.34
					c0.336,0,0.6,0.125,0.783,0.371l1.156,1.436c-0.51,0.586-1.115,1.1-1.826,1.531c-0.709,0.434-1.467,0.793-2.275,1.072
					s-1.646,0.488-2.506,0.629c-0.863,0.139-1.719,0.215-2.566,0.215c-1.617,0-3.109-0.266-4.471-0.787
					c-1.363-0.523-2.543-1.287-3.535-2.297c-0.996-1.006-1.77-2.254-2.324-3.74c-0.553-1.486-0.832-3.189-0.832-5.119
					c0-1.559,0.252-3.018,0.752-4.367c0.502-1.355,1.221-2.529,2.162-3.521c0.939-0.992,2.086-1.77,3.439-2.344
					C418.363,179.285,419.891,179,421.584,179z M421.676,181.893c-1.986,0-3.551,0.551-4.689,1.645
					c-1.141,1.1-1.85,2.613-2.127,4.555h12.732c0-0.908-0.131-1.742-0.393-2.5c-0.264-0.756-0.648-1.412-1.154-1.967
					c-0.51-0.549-1.129-0.977-1.863-1.275C423.449,182.043,422.617,181.893,421.676,181.893z"/>
				<path fill="#C4C5D2" d="M458.348,201.705h-1.824c-0.402,0-0.727-0.055-0.971-0.172c-0.246-0.115-0.41-0.367-0.486-0.754
					l-0.463-2.072c-0.617,0.531-1.217,1.006-1.801,1.424c-0.588,0.42-1.203,0.773-1.85,1.059c-0.646,0.289-1.338,0.508-2.068,0.656
					c-0.73,0.145-1.543,0.219-2.436,0.219c-0.91,0-1.762-0.125-2.557-0.367c-0.793-0.242-1.482-0.611-2.066-1.096
					c-0.586-0.488-1.053-1.104-1.4-1.848c-0.344-0.746-0.518-1.631-0.518-2.646c0-0.889,0.256-1.742,0.764-2.557
					c0.506-0.82,1.328-1.547,2.459-2.18c1.133-0.639,2.615-1.16,4.449-1.564c1.834-0.406,4.074-0.611,6.723-0.611v-1.75
					c0-1.748-0.389-3.07-1.168-3.965c-0.777-0.898-1.926-1.346-3.453-1.346c-1.002,0-1.844,0.127-2.527,0.369
					c-0.688,0.242-1.279,0.512-1.781,0.814c-0.502,0.299-0.932,0.572-1.295,0.814c-0.361,0.242-0.719,0.363-1.072,0.363
					c-0.281,0-0.523-0.064-0.73-0.209c-0.205-0.141-0.373-0.312-0.496-0.518l-0.738-1.258c1.291-1.191,2.688-2.08,4.182-2.668
					c1.496-0.592,3.15-0.885,4.967-0.885c1.311,0,2.473,0.205,3.49,0.619c1.016,0.41,1.873,0.988,2.564,1.719
					c0.693,0.736,1.217,1.625,1.572,2.668c0.354,1.049,0.531,2.195,0.531,3.443V201.705z M447.672,199.303
					c0.725,0,1.387-0.07,1.986-0.209c0.602-0.141,1.17-0.34,1.699-0.592c0.531-0.262,1.037-0.574,1.523-0.941
					s0.959-0.787,1.422-1.258v-4.611c-1.895,0-3.502,0.117-4.826,0.342c-1.326,0.232-2.404,0.529-3.238,0.898
					c-0.83,0.373-1.436,0.811-1.814,1.312c-0.377,0.504-0.562,1.062-0.562,1.686c0,0.592,0.098,1.105,0.301,1.533
					c0.197,0.428,0.467,0.783,0.807,1.053c0.338,0.275,0.74,0.475,1.203,0.602C446.633,199.238,447.135,199.303,447.672,199.303z"/>
				<path fill="#C4C5D2" d="M476.301,202.064c-1.848,0-3.271-0.494-4.262-1.48c-0.994-0.982-1.492-2.404-1.492-4.258v-13.678h-2.82
					c-0.244,0-0.453-0.076-0.623-0.215c-0.17-0.141-0.254-0.359-0.254-0.652v-1.561l3.836-0.471l0.949-6.906
					c0.029-0.219,0.129-0.396,0.299-0.541c0.17-0.135,0.387-0.209,0.646-0.209h2.08v7.703h6.703v2.852h-6.703v13.412
					c0,0.941,0.238,1.641,0.719,2.096c0.475,0.453,1.092,0.686,1.846,0.686c0.434,0,0.805-0.057,1.121-0.168
					c0.318-0.107,0.59-0.229,0.82-0.363c0.232-0.131,0.43-0.252,0.59-0.363c0.162-0.111,0.303-0.168,0.428-0.168
					c0.215,0,0.408,0.127,0.578,0.377l1.201,1.877c-0.709,0.635-1.564,1.127-2.564,1.49
					C478.395,201.883,477.365,202.064,476.301,202.064z"/>
				<path fill="#C4C5D2" d="M496.566,172.336c0,0.387-0.082,0.74-0.242,1.072c-0.162,0.33-0.377,0.627-0.646,0.885
					c-0.271,0.256-0.582,0.461-0.938,0.605c-0.355,0.148-0.732,0.223-1.131,0.223c-0.404,0-0.775-0.074-1.121-0.223
					c-0.348-0.145-0.656-0.35-0.926-0.605c-0.27-0.258-0.48-0.555-0.635-0.885c-0.156-0.332-0.23-0.686-0.23-1.072
					c0-0.377,0.074-0.744,0.23-1.09c0.154-0.34,0.365-0.646,0.635-0.904c0.27-0.256,0.578-0.461,0.926-0.605
					c0.346-0.148,0.717-0.223,1.121-0.223c0.398,0,0.775,0.074,1.131,0.223c0.355,0.145,0.666,0.35,0.938,0.605
					c0.27,0.258,0.484,0.564,0.646,0.904C496.484,171.592,496.566,171.959,496.566,172.336z M495.641,179.355v22.35h-4.113v-22.35
					H495.641z"/>
				<path fill="#C4C5D2" d="M504.562,179.355h3.375c0.322,0,0.59,0.084,0.807,0.242c0.217,0.162,0.369,0.354,0.461,0.576
					l5.941,14.387c0.215,0.527,0.385,1.059,0.508,1.59c0.123,0.529,0.236,1.047,0.346,1.564c0.123-0.518,0.254-1.035,0.393-1.564
					c0.139-0.531,0.318-1.062,0.531-1.59l6.008-14.387c0.094-0.236,0.246-0.432,0.453-0.586s0.465-0.232,0.773-0.232h3.211
					l-9.545,22.35h-3.719L504.562,179.355z"/>
				<path fill="#C4C5D2" d="M544.469,179c1.402,0,2.695,0.229,3.883,0.676c1.186,0.447,2.209,1.096,3.074,1.943
					c0.861,0.842,1.535,1.885,2.021,3.133c0.486,1.244,0.729,2.656,0.729,4.248c0,0.619-0.07,1.029-0.207,1.234
					c-0.141,0.205-0.404,0.307-0.787,0.307h-15.574c0.031,1.416,0.23,2.643,0.6,3.689c0.369,1.043,0.879,1.914,1.525,2.613
					s1.42,1.221,2.311,1.564c0.896,0.346,1.895,0.521,3.004,0.521c1.033,0,1.922-0.111,2.672-0.344
					c0.746-0.229,1.389-0.477,1.928-0.736c0.539-0.27,0.988-0.512,1.352-0.74c0.361-0.229,0.674-0.34,0.936-0.34
					c0.338,0,0.602,0.125,0.787,0.371l1.154,1.436c-0.508,0.586-1.117,1.1-1.826,1.531c-0.711,0.434-1.467,0.793-2.273,1.072
					c-0.811,0.279-1.648,0.488-2.51,0.629c-0.861,0.139-1.719,0.215-2.564,0.215c-1.617,0-3.109-0.266-4.471-0.787
					c-1.363-0.523-2.543-1.287-3.535-2.297c-0.996-1.006-1.768-2.254-2.324-3.74c-0.555-1.486-0.83-3.189-0.83-5.119
					c0-1.559,0.248-3.018,0.748-4.367c0.5-1.355,1.223-2.529,2.162-3.521s2.088-1.77,3.443-2.344
					C541.25,179.285,542.775,179,544.469,179z M544.562,181.893c-1.986,0-3.551,0.551-4.691,1.645
					c-1.139,1.1-1.85,2.613-2.125,4.555h12.732c0-0.908-0.131-1.742-0.395-2.5c-0.262-0.756-0.646-1.412-1.154-1.967
					c-0.508-0.549-1.127-0.977-1.859-1.275C546.338,182.043,545.5,181.893,544.562,181.893z"/>
			</g>
			<g id="Web_1_">
				<path fill="#C4C5D2" d="M574.531,170.086h3.721c0.402,0,0.732,0.098,0.994,0.289s0.439,0.434,0.531,0.727l6.842,21.979
					c0.121,0.396,0.232,0.824,0.332,1.281c0.104,0.457,0.197,0.936,0.289,1.434c0.109-0.498,0.219-0.977,0.324-1.447
					c0.107-0.461,0.23-0.885,0.369-1.268l7.787-21.979c0.094-0.252,0.275-0.479,0.545-0.693c0.268-0.209,0.596-0.322,0.98-0.322
					h1.295c0.4,0,0.729,0.098,0.982,0.289s0.436,0.434,0.541,0.727l7.742,21.979c0.279,0.77,0.523,1.639,0.74,2.627
					c0.094-0.484,0.176-0.945,0.254-1.389c0.078-0.441,0.176-0.855,0.301-1.238l6.863-21.979c0.076-0.26,0.252-0.498,0.521-0.703
					c0.268-0.205,0.596-0.312,0.979-0.312h3.49l-10.328,31.619h-4.021l-8.387-24.115c-0.17-0.457-0.324-0.982-0.465-1.588
					c-0.076,0.293-0.148,0.576-0.219,0.852c-0.068,0.275-0.141,0.518-0.219,0.736l-8.434,24.115h-4.021L574.531,170.086z"/>
				<path fill="#C4C5D2" d="M637.826,179c1.402,0,2.695,0.229,3.881,0.676s2.211,1.096,3.074,1.943
					c0.863,0.842,1.537,1.885,2.021,3.133c0.486,1.244,0.729,2.656,0.729,4.248c0,0.619-0.066,1.029-0.207,1.234
					c-0.139,0.205-0.4,0.307-0.785,0.307h-15.578c0.033,1.416,0.234,2.643,0.604,3.689c0.369,1.043,0.877,1.914,1.523,2.613
					c0.648,0.699,1.418,1.221,2.314,1.564c0.891,0.346,1.893,0.521,3,0.521c1.033,0,1.924-0.111,2.67-0.344
					c0.746-0.229,1.391-0.477,1.93-0.736c0.539-0.27,0.99-0.512,1.354-0.74c0.359-0.229,0.674-0.34,0.934-0.34
					c0.342,0,0.602,0.125,0.785,0.371l1.156,1.436c-0.508,0.586-1.115,1.1-1.824,1.531c-0.709,0.434-1.469,0.793-2.277,1.072
					c-0.807,0.279-1.645,0.488-2.506,0.629c-0.863,0.139-1.719,0.215-2.564,0.215c-1.619,0-3.109-0.266-4.473-0.787
					c-1.363-0.523-2.543-1.287-3.533-2.297c-0.996-1.006-1.77-2.254-2.326-3.74c-0.555-1.486-0.83-3.189-0.83-5.119
					c0-1.559,0.248-3.018,0.752-4.367c0.5-1.355,1.219-2.529,2.158-3.521c0.941-0.992,2.088-1.77,3.445-2.344
					C634.605,179.285,636.133,179,637.826,179z M637.92,181.893c-1.99,0-3.555,0.551-4.695,1.645
					c-1.139,1.1-1.846,2.613-2.123,4.555h12.732c0-0.908-0.131-1.742-0.393-2.5c-0.262-0.756-0.646-1.412-1.154-1.967
					c-0.51-0.549-1.129-0.977-1.863-1.275C639.695,182.043,638.857,181.893,637.92,181.893z"/>
				<path fill="#C4C5D2" d="M657.537,201.705v-32.498h4.135v13.371c0.973-1.076,2.086-1.938,3.338-2.59
					c1.258-0.656,2.693-0.988,4.312-0.988c1.354,0,2.58,0.242,3.674,0.732c1.094,0.488,2.025,1.211,2.795,2.174
					c0.77,0.961,1.363,2.152,1.779,3.572c0.418,1.422,0.625,3.057,0.625,4.91c0,1.648-0.23,3.18-0.693,4.602
					c-0.463,1.42-1.129,2.645-2,3.684c-0.869,1.039-1.932,1.857-3.189,2.449c-1.254,0.598-2.666,0.9-4.24,0.9
					c-1.51,0-2.791-0.285-3.846-0.844c-1.057-0.555-1.975-1.336-2.762-2.338l-0.209,2.031c-0.123,0.553-0.479,0.832-1.062,0.832
					H657.537z M667.98,182.135c-1.338,0-2.514,0.293-3.523,0.885c-1.01,0.588-1.938,1.422-2.785,2.492v10.814
					c0.74,0.969,1.561,1.654,2.461,2.049c0.902,0.396,1.906,0.598,3.016,0.598c2.188,0,3.865-0.742,5.039-2.227
					c1.17-1.486,1.756-3.605,1.756-6.357c0-1.453-0.135-2.707-0.404-3.754c-0.27-1.039-0.658-1.896-1.168-2.566
					c-0.508-0.672-1.131-1.16-1.871-1.467C669.76,182.289,668.92,182.135,667.98,182.135z"/>
			</g>
			<path id="_x26__1_" fill="#C4C5D2" d="M713.271,169.736c1.217,0,2.324,0.188,3.328,0.564c1,0.373,1.865,0.871,2.598,1.486
				c0.732,0.613,1.311,1.336,1.734,2.15c0.424,0.816,0.666,1.668,0.729,2.553l-2.564,0.484c-0.076,0.01-0.148,0.023-0.209,0.023
				c-0.199,0-0.389-0.057-0.568-0.158c-0.174-0.102-0.303-0.283-0.379-0.549c-0.105-0.387-0.281-0.783-0.518-1.193
				c-0.24-0.414-0.549-0.787-0.928-1.123c-0.377-0.34-0.832-0.623-1.361-0.842c-0.533-0.219-1.152-0.33-1.861-0.33
				c-0.77,0-1.463,0.115-2.08,0.354c-0.615,0.236-1.143,0.562-1.584,0.979c-0.438,0.424-0.775,0.912-1.016,1.484
				c-0.236,0.564-0.357,1.18-0.357,1.84c0,0.518,0.064,1.012,0.197,1.477c0.131,0.471,0.326,0.945,0.59,1.426
				c0.26,0.479,0.6,0.973,1.016,1.477c0.416,0.512,0.918,1.043,1.502,1.602l9.521,9.244c0.584-0.982,1.051-2.016,1.398-3.102
				c0.348-1.08,0.578-2.166,0.701-3.25c0.033-0.279,0.127-0.504,0.277-0.666c0.156-0.158,0.373-0.242,0.65-0.242h2.539
				c-0.031,1.689-0.314,3.354-0.855,4.988c-0.537,1.635-1.314,3.162-2.334,4.588l6.934,6.705h-3.973
				c-0.449,0-0.811-0.045-1.086-0.152c-0.277-0.098-0.588-0.312-0.926-0.639l-3.326-3.199c-1.451,1.336-3.117,2.398-5.004,3.176
				s-3.963,1.174-6.227,1.174c-1.234,0-2.443-0.201-3.629-0.602c-1.188-0.395-2.246-0.969-3.176-1.727
				c-0.934-0.756-1.686-1.682-2.256-2.771s-0.854-2.32-0.854-3.684c0-1.029,0.182-2.004,0.543-2.926
				c0.359-0.918,0.861-1.77,1.5-2.547c0.641-0.783,1.398-1.477,2.277-2.096c0.877-0.621,1.842-1.15,2.891-1.59
				c-0.943-1.131-1.635-2.234-2.082-3.311c-0.447-1.07-0.668-2.184-0.668-3.33c0-1.076,0.201-2.082,0.611-3.023
				c0.408-0.945,0.996-1.764,1.768-2.463c0.771-0.693,1.707-1.248,2.807-1.654C710.664,169.938,711.9,169.736,713.271,169.736z
				 M704.098,192.969c0,0.959,0.186,1.803,0.555,2.529c0.371,0.727,0.855,1.346,1.455,1.84c0.604,0.502,1.287,0.885,2.057,1.141
				c0.771,0.256,1.557,0.381,2.357,0.381c1.725,0,3.273-0.297,4.645-0.902c1.373-0.605,2.58-1.402,3.631-2.408l-9.775-9.418
				c-1.635,0.838-2.863,1.846-3.686,3.014C704.512,190.314,704.098,191.59,704.098,192.969z"/>
			<g id="Digital_1_">
				<path fill="#C4C5D2" d="M781.394,185.908c0,2.371-0.395,4.527-1.178,6.465c-0.785,1.945-1.896,3.609-3.33,4.992
					c-1.43,1.379-3.15,2.449-5.15,3.209c-2.004,0.754-4.223,1.131-6.656,1.131h-12.385v-31.619h12.385
					c2.434,0,4.652,0.383,6.656,1.137c2,0.76,3.721,1.836,5.15,3.223c1.434,1.393,2.545,3.057,3.33,4.998
					C780.999,181.385,781.394,183.541,781.394,185.908z M776.796,185.908c0-1.943-0.277-3.676-0.832-5.207
					c-0.555-1.527-1.342-2.822-2.355-3.881c-1.02-1.061-2.25-1.871-3.699-2.43c-1.451-0.559-3.059-0.84-4.83-0.84h-7.881v24.695
					h7.881c1.771,0,3.379-0.279,4.83-0.84c1.449-0.559,2.68-1.363,3.699-2.416c1.014-1.053,1.801-2.344,2.355-3.871
					C776.519,189.588,776.796,187.85,776.796,185.908z"/>
				<path fill="#C4C5D2" d="M796.968,172.336c0,0.387-0.082,0.74-0.242,1.072c-0.162,0.33-0.379,0.627-0.646,0.885
					c-0.271,0.256-0.584,0.461-0.936,0.605c-0.357,0.148-0.732,0.223-1.133,0.223s-0.773-0.074-1.123-0.223
					c-0.346-0.145-0.654-0.35-0.922-0.605c-0.271-0.258-0.482-0.555-0.637-0.885c-0.154-0.332-0.23-0.686-0.23-1.072
					c0-0.377,0.076-0.744,0.23-1.09c0.154-0.34,0.365-0.646,0.637-0.904c0.268-0.256,0.576-0.461,0.922-0.605
					c0.35-0.148,0.723-0.223,1.123-0.223s0.775,0.074,1.133,0.223c0.352,0.145,0.664,0.35,0.936,0.605
					c0.268,0.258,0.484,0.564,0.646,0.904C796.886,171.592,796.968,171.959,796.968,172.336z M796.044,179.355v22.35h-4.111v-22.35
					H796.044z"/>
				<path fill="#C4C5D2" d="M815.802,178.979c1.016,0,1.969,0.111,2.854,0.32c0.885,0.215,1.689,0.527,2.414,0.936h6.355v1.459
					c0,0.484-0.324,0.795-0.971,0.932l-2.658,0.354c0.523,0.955,0.785,2.016,0.785,3.195c0,1.09-0.217,2.082-0.656,2.971
					c-0.441,0.891-1.051,1.648-1.828,2.283c-0.779,0.627-1.701,1.111-2.773,1.453c-1.07,0.34-2.244,0.506-3.521,0.506
					c-1.098,0-2.127-0.121-3.098-0.371c-0.494,0.303-0.865,0.633-1.121,0.977c-0.254,0.355-0.379,0.695-0.379,1.029
					c0,0.551,0.223,0.965,0.668,1.244s1.039,0.484,1.781,0.602c0.738,0.125,1.578,0.186,2.518,0.186s1.898,0,2.877,0
					s1.938,0.084,2.875,0.248c0.939,0.162,1.783,0.428,2.52,0.801c0.74,0.377,1.334,0.889,1.781,1.541
					c0.443,0.656,0.668,1.51,0.668,2.547c0,0.969-0.25,1.906-0.75,2.814s-1.221,1.719-2.162,2.426
					c-0.938,0.709-2.088,1.271-3.441,1.695c-1.357,0.424-2.887,0.639-4.6,0.639c-1.711,0-3.207-0.158-4.492-0.484
					c-1.287-0.326-2.355-0.76-3.201-1.305c-0.85-0.545-1.484-1.178-1.904-1.891c-0.428-0.713-0.639-1.463-0.639-2.244
					c0-1.1,0.367-2.041,1.098-2.814c0.732-0.773,1.736-1.387,3.014-1.844c-0.66-0.293-1.189-0.686-1.58-1.178
					c-0.393-0.49-0.588-1.146-0.588-1.971c0-0.326,0.061-0.656,0.184-1.006c0.121-0.346,0.311-0.686,0.564-1.025
					c0.258-0.334,0.566-0.66,0.936-0.969c0.371-0.303,0.801-0.576,1.295-0.814c-1.156-0.615-2.061-1.436-2.715-2.455
					c-0.654-1.023-0.982-2.221-0.982-3.59c0-1.09,0.221-2.078,0.66-2.967c0.438-0.891,1.049-1.648,1.836-2.273
					c0.787-0.623,1.723-1.107,2.807-1.443C813.315,179.15,814.507,178.979,815.802,178.979z M823.103,202.848
					c0-0.574-0.164-1.035-0.484-1.375c-0.324-0.35-0.764-0.615-1.318-0.801s-1.193-0.326-1.918-0.414
					c-0.723-0.094-1.486-0.141-2.287-0.141s-1.619,0-2.451,0c-0.83,0-1.623-0.098-2.379-0.297c-0.877,0.4-1.59,0.889-2.137,1.461
					c-0.547,0.574-0.822,1.258-0.822,2.055c0,0.498,0.135,0.969,0.406,1.406c0.27,0.43,0.684,0.807,1.238,1.123
					c0.553,0.32,1.248,0.568,2.088,0.75c0.842,0.191,1.832,0.279,2.971,0.279c1.109,0,2.102-0.098,2.98-0.293
					c0.879-0.197,1.621-0.471,2.23-0.834c0.607-0.359,1.074-0.787,1.398-1.281C822.938,203.992,823.103,203.443,823.103,202.848z
					 M815.802,190.783c0.832,0,1.564-0.105,2.207-0.33c0.639-0.219,1.172-0.531,1.605-0.922c0.432-0.4,0.754-0.871,0.971-1.426
					c0.215-0.553,0.324-1.158,0.324-1.82c0-1.369-0.436-2.459-1.307-3.266c-0.869-0.811-2.137-1.211-3.801-1.211
					c-1.65,0-2.908,0.4-3.779,1.211c-0.871,0.807-1.307,1.896-1.307,3.266c0,0.662,0.113,1.268,0.336,1.82
					c0.223,0.555,0.553,1.025,0.982,1.426c0.43,0.391,0.963,0.703,1.594,0.922C814.261,190.678,814.985,190.783,815.802,190.783z"/>
				<path fill="#C4C5D2" d="M841.657,172.336c0,0.387-0.082,0.74-0.242,1.072c-0.164,0.33-0.379,0.627-0.646,0.885
					c-0.27,0.256-0.582,0.461-0.936,0.605c-0.355,0.148-0.732,0.223-1.133,0.223s-0.773-0.074-1.121-0.223
					c-0.346-0.145-0.654-0.35-0.926-0.605c-0.27-0.258-0.48-0.555-0.635-0.885c-0.152-0.332-0.23-0.686-0.23-1.072
					c0-0.377,0.078-0.744,0.23-1.09c0.154-0.34,0.365-0.646,0.635-0.904c0.271-0.256,0.58-0.461,0.926-0.605
					c0.348-0.148,0.721-0.223,1.121-0.223s0.777,0.074,1.133,0.223c0.354,0.145,0.666,0.35,0.936,0.605
					c0.268,0.258,0.482,0.564,0.646,0.904C841.575,171.592,841.657,171.959,841.657,172.336z M840.733,179.355v22.35h-4.111v-22.35
					H840.733z"/>
				<path fill="#C4C5D2" d="M859.706,202.064c-1.85,0-3.271-0.494-4.264-1.48c-0.994-0.982-1.49-2.404-1.49-4.258v-13.678h-2.82
					c-0.246,0-0.453-0.076-0.623-0.215c-0.17-0.141-0.254-0.359-0.254-0.652v-1.561l3.834-0.471l0.949-6.906
					c0.029-0.219,0.131-0.396,0.299-0.541c0.17-0.135,0.387-0.209,0.646-0.209h2.08v7.703h6.701v2.852h-6.701v13.412
					c0,0.941,0.24,1.641,0.717,2.096c0.477,0.453,1.094,0.686,1.848,0.686c0.434,0,0.805-0.057,1.121-0.168
					c0.318-0.107,0.592-0.229,0.822-0.363c0.23-0.131,0.428-0.252,0.588-0.363c0.162-0.111,0.305-0.168,0.428-0.168
					c0.215,0,0.408,0.127,0.578,0.377l1.201,1.877c-0.709,0.635-1.564,1.127-2.564,1.49
					C861.802,201.883,860.769,202.064,859.706,202.064z"/>
				<path fill="#C4C5D2" d="M891.665,201.705h-1.828c-0.4,0-0.723-0.055-0.969-0.172c-0.248-0.115-0.408-0.367-0.488-0.754
					l-0.459-2.072c-0.617,0.531-1.221,1.006-1.805,1.424c-0.584,0.42-1.203,0.773-1.85,1.059c-0.645,0.289-1.336,0.508-2.066,0.656
					c-0.73,0.145-1.545,0.219-2.438,0.219c-0.91,0-1.76-0.125-2.553-0.367c-0.797-0.242-1.486-0.611-2.068-1.096
					c-0.588-0.488-1.053-1.104-1.398-1.848c-0.348-0.746-0.52-1.631-0.52-2.646c0-0.889,0.254-1.742,0.762-2.557
					c0.506-0.82,1.328-1.547,2.461-2.18c1.133-0.639,2.615-1.16,4.445-1.564c1.834-0.406,4.078-0.611,6.727-0.611v-1.75
					c0-1.748-0.389-3.07-1.166-3.965c-0.777-0.898-1.93-1.346-3.455-1.346c-1.002,0-1.844,0.127-2.529,0.369
					c-0.688,0.242-1.277,0.512-1.781,0.814c-0.5,0.299-0.93,0.572-1.293,0.814s-0.721,0.363-1.072,0.363
					c-0.279,0-0.521-0.064-0.73-0.209c-0.207-0.141-0.373-0.312-0.496-0.518l-0.74-1.258c1.295-1.191,2.689-2.08,4.184-2.668
					c1.494-0.592,3.148-0.885,4.967-0.885c1.309,0,2.475,0.205,3.488,0.619c1.018,0.41,1.875,0.988,2.566,1.719
					c0.695,0.736,1.215,1.625,1.572,2.668c0.354,1.049,0.533,2.195,0.533,3.443V201.705z M880.987,199.303
					c0.723,0,1.385-0.07,1.988-0.209c0.6-0.141,1.166-0.34,1.697-0.592c0.529-0.262,1.039-0.574,1.525-0.941
					c0.484-0.367,0.959-0.787,1.42-1.258v-4.611c-1.895,0-3.502,0.117-4.828,0.342c-1.326,0.232-2.404,0.529-3.238,0.898
					c-0.83,0.373-1.434,0.811-1.812,1.312c-0.377,0.504-0.564,1.062-0.564,1.686c0,0.592,0.1,1.105,0.299,1.533
					c0.201,0.428,0.471,0.783,0.811,1.053c0.338,0.275,0.74,0.475,1.201,0.602C879.946,199.238,880.448,199.303,880.987,199.303z"/>
				<path fill="#C4C5D2" d="M907.099,169.207v32.498h-4.113v-32.498H907.099z"/>
			</g>
			<g id="Design_1_">
				<path fill="#C4C5D2" d="M961.867,185.908c0,2.371-0.395,4.527-1.182,6.465c-0.785,1.945-1.893,3.609-3.326,4.992
					c-1.434,1.379-3.152,2.449-5.155,3.209c-2.004,0.754-4.221,1.131-6.654,1.131h-12.387v-31.619h12.387
					c2.434,0,4.65,0.383,6.654,1.137c2.003,0.76,3.722,1.836,5.155,3.223c1.434,1.393,2.541,3.057,3.326,4.998
					C961.473,181.385,961.867,183.541,961.867,185.908z M957.266,185.908c0-1.943-0.279-3.676-0.832-5.207
					c-0.555-1.527-1.34-2.822-2.357-3.881c-1.014-1.061-2.249-1.871-3.698-2.43c-1.447-0.559-3.059-0.84-4.828-0.84h-7.881v24.695
					h7.881c1.77,0,3.381-0.279,4.828-0.84c1.449-0.559,2.685-1.363,3.698-2.416c1.018-1.053,1.803-2.344,2.357-3.871
					C956.986,189.588,957.266,187.85,957.266,185.908z"/>
				<path fill="#C4C5D2" d="M981.207,179c1.402,0,2.695,0.229,3.883,0.676c1.186,0.447,2.209,1.096,3.07,1.943
					c0.865,0.842,1.539,1.885,2.023,3.133c0.484,1.244,0.727,2.656,0.727,4.248c0,0.619-0.066,1.029-0.207,1.234
					c-0.139,0.205-0.4,0.307-0.783,0.307h-15.576c0.029,1.416,0.232,2.643,0.6,3.689c0.371,1.043,0.879,1.914,1.527,2.613
					c0.645,0.699,1.414,1.221,2.311,1.564c0.891,0.346,1.893,0.521,3.002,0.521c1.031,0,1.924-0.111,2.67-0.344
					c0.748-0.229,1.393-0.477,1.932-0.736c0.537-0.27,0.988-0.512,1.352-0.74c0.357-0.229,0.672-0.34,0.934-0.34
					c0.34,0,0.602,0.125,0.787,0.371l1.152,1.436c-0.506,0.586-1.115,1.1-1.822,1.531c-0.711,0.434-1.469,0.793-2.277,1.072
					s-1.645,0.488-2.508,0.629c-0.861,0.139-1.717,0.215-2.564,0.215c-1.619,0-3.109-0.266-4.473-0.787
					c-1.363-0.523-2.541-1.287-3.533-2.297c-0.994-1.006-1.77-2.254-2.326-3.74c-0.553-1.486-0.83-3.189-0.83-5.119
					c0-1.559,0.248-3.018,0.752-4.367c0.5-1.355,1.221-2.529,2.158-3.521c0.941-0.992,2.088-1.77,3.447-2.344
					C977.986,179.285,979.512,179,981.207,179z M981.299,181.893c-1.988,0-3.551,0.551-4.691,1.645
					c-1.141,1.1-1.848,2.613-2.125,4.555h12.732c0-0.908-0.133-1.742-0.393-2.5c-0.264-0.756-0.646-1.412-1.156-1.967
					c-0.508-0.549-1.129-0.977-1.859-1.275C983.076,182.043,982.238,181.893,981.299,181.893z"/>
				<path fill="#C4C5D2" d="M1014.182,183.043c-0.186,0.322-0.473,0.484-0.855,0.484c-0.234,0-0.494-0.084-0.787-0.242
					c-0.289-0.162-0.65-0.344-1.072-0.539c-0.424-0.201-0.932-0.387-1.516-0.555c-0.582-0.168-1.277-0.256-2.078-0.256
					c-0.693,0-1.316,0.088-1.873,0.256s-1.029,0.4-1.422,0.699c-0.393,0.293-0.693,0.637-0.9,1.023s-0.311,0.814-0.311,1.268
					c0,0.572,0.172,1.053,0.518,1.434c0.348,0.383,0.807,0.713,1.375,0.992c0.572,0.279,1.221,0.527,1.945,0.74
					c0.719,0.215,1.465,0.443,2.229,0.686c0.76,0.242,1.504,0.512,2.229,0.801c0.723,0.299,1.369,0.666,1.939,1.109
					c0.572,0.438,1.029,0.977,1.377,1.615c0.346,0.643,0.52,1.412,0.52,2.311c0,1.029-0.193,1.984-0.576,2.855
					c-0.385,0.875-0.957,1.635-1.711,2.277c-0.756,0.637-1.68,1.141-2.775,1.508c-1.09,0.369-2.355,0.555-3.787,0.555
					c-1.635,0-3.111-0.256-4.436-0.764c-1.326-0.508-2.451-1.154-3.377-1.951l0.971-1.5c0.123-0.191,0.27-0.34,0.439-0.443
					c0.17-0.105,0.393-0.152,0.67-0.152c0.279,0,0.57,0.098,0.879,0.307s0.68,0.434,1.121,0.686c0.439,0.25,0.969,0.479,1.594,0.684
					c0.623,0.205,1.404,0.309,2.346,0.309c0.799,0,1.502-0.1,2.104-0.299c0.6-0.195,1.1-0.467,1.502-0.807
					c0.4-0.34,0.695-0.727,0.889-1.168c0.193-0.443,0.289-0.914,0.289-1.416c0-0.615-0.172-1.127-0.52-1.527
					c-0.346-0.406-0.807-0.756-1.373-1.039c-0.57-0.289-1.223-0.541-1.957-0.75c-0.729-0.215-1.477-0.438-2.24-0.676
					c-0.76-0.232-1.508-0.502-2.24-0.801c-0.734-0.303-1.383-0.684-1.953-1.137c-0.57-0.461-1.029-1.02-1.375-1.689
					c-0.346-0.672-0.52-1.482-0.52-2.441c0-0.848,0.186-1.672,0.555-2.459s0.91-1.477,1.617-2.072
					c0.709-0.596,1.58-1.07,2.611-1.426c1.031-0.354,2.211-0.531,3.535-0.531c1.543,0,2.924,0.234,4.15,0.699
					c1.223,0.461,2.283,1.1,3.176,1.91L1014.182,183.043z"/>
				<path fill="#C4C5D2" d="M1030.957,172.336c0,0.387-0.082,0.74-0.242,1.072c-0.162,0.33-0.381,0.627-0.648,0.885
					c-0.27,0.256-0.58,0.461-0.934,0.605c-0.357,0.148-0.734,0.223-1.135,0.223s-0.773-0.074-1.117-0.223
					c-0.348-0.145-0.656-0.35-0.928-0.605c-0.27-0.258-0.482-0.555-0.635-0.885c-0.154-0.332-0.23-0.686-0.23-1.072
					c0-0.377,0.076-0.744,0.23-1.09c0.152-0.34,0.365-0.646,0.635-0.904c0.271-0.256,0.58-0.461,0.928-0.605
					c0.344-0.148,0.717-0.223,1.117-0.223s0.777,0.074,1.135,0.223c0.354,0.145,0.664,0.35,0.934,0.605
					c0.268,0.258,0.486,0.564,0.648,0.904C1030.875,171.592,1030.957,171.959,1030.957,172.336z M1030.031,179.355v22.35h-4.109
					v-22.35H1030.031z"/>
				<path fill="#C4C5D2" d="M1049.789,178.979c1.02,0,1.969,0.111,2.854,0.32c0.887,0.215,1.691,0.527,2.416,0.936h6.357v1.459
					c0,0.484-0.326,0.795-0.973,0.932l-2.658,0.354c0.523,0.955,0.787,2.016,0.787,3.195c0,1.09-0.219,2.082-0.66,2.971
					c-0.439,0.891-1.049,1.648-1.824,2.283c-0.779,0.627-1.703,1.111-2.771,1.453c-1.074,0.34-2.248,0.506-3.527,0.506
					c-1.092,0-2.123-0.121-3.096-0.371c-0.494,0.303-0.865,0.633-1.121,0.977c-0.254,0.355-0.381,0.695-0.381,1.029
					c0,0.551,0.225,0.965,0.672,1.244c0.443,0.279,1.039,0.484,1.779,0.602c0.738,0.125,1.578,0.186,2.518,0.186s1.898,0,2.875,0
					c0.979,0,1.936,0.084,2.879,0.248c0.938,0.162,1.777,0.428,2.518,0.801c0.74,0.377,1.334,0.889,1.779,1.541
					c0.447,0.656,0.672,1.51,0.672,2.547c0,0.969-0.252,1.906-0.752,2.814c-0.502,0.908-1.221,1.719-2.16,2.426
					c-0.939,0.709-2.086,1.271-3.443,1.695c-1.355,0.424-2.887,0.639-4.6,0.639c-1.709,0-3.205-0.158-4.494-0.484
					c-1.285-0.326-2.352-0.76-3.199-1.305c-0.846-0.545-1.484-1.178-1.906-1.891c-0.426-0.713-0.637-1.463-0.637-2.244
					c0-1.1,0.367-2.041,1.098-2.814c0.732-0.773,1.738-1.387,3.018-1.844c-0.664-0.293-1.193-0.686-1.586-1.178
					c-0.391-0.49-0.586-1.146-0.586-1.971c0-0.326,0.061-0.656,0.184-1.006c0.123-0.346,0.311-0.686,0.564-1.025
					c0.256-0.334,0.568-0.66,0.936-0.969c0.371-0.303,0.805-0.576,1.295-0.814c-1.154-0.615-2.061-1.436-2.715-2.455
					c-0.654-1.023-0.982-2.221-0.982-3.59c0-1.09,0.221-2.078,0.66-2.967c0.436-0.891,1.049-1.648,1.836-2.273
					c0.787-0.623,1.721-1.107,2.809-1.443C1047.307,179.15,1048.496,178.979,1049.789,178.979z M1057.092,202.848
					c0-0.574-0.162-1.035-0.482-1.375c-0.326-0.35-0.764-0.615-1.32-0.801c-0.555-0.186-1.191-0.326-1.918-0.414
					c-0.725-0.094-1.486-0.141-2.287-0.141s-1.619,0-2.449,0c-0.832,0-1.627-0.098-2.379-0.297c-0.881,0.4-1.592,0.889-2.139,1.461
					c-0.547,0.574-0.818,1.258-0.818,2.055c0,0.498,0.133,0.969,0.402,1.406c0.27,0.43,0.68,0.807,1.236,1.123
					c0.555,0.32,1.25,0.568,2.09,0.75c0.84,0.191,1.83,0.279,2.971,0.279c1.109,0,2.102-0.098,2.98-0.293
					c0.879-0.197,1.621-0.471,2.23-0.834c0.607-0.359,1.074-0.787,1.4-1.281C1056.93,203.992,1057.092,203.443,1057.092,202.848z
					 M1049.789,190.783c0.834,0,1.57-0.105,2.205-0.33c0.641-0.219,1.178-0.531,1.609-0.922c0.432-0.4,0.754-0.871,0.971-1.426
					c0.213-0.553,0.322-1.158,0.322-1.82c0-1.369-0.436-2.459-1.305-3.266c-0.871-0.811-2.137-1.211-3.803-1.211
					c-1.648,0-2.906,0.4-3.775,1.211c-0.873,0.807-1.307,1.896-1.307,3.266c0,0.662,0.109,1.268,0.334,1.82
					c0.223,0.555,0.551,1.025,0.982,1.426c0.43,0.391,0.961,0.703,1.596,0.922C1048.25,190.678,1048.975,190.783,1049.789,190.783z"
					/>
				<path fill="#C4C5D2" d="M1070.148,201.705v-22.35h2.449c0.584,0,0.955,0.273,1.109,0.818l0.32,2.428
					c1.018-1.076,2.154-1.943,3.41-2.609c1.256-0.66,2.707-0.992,4.357-0.992c1.277,0,2.404,0.211,3.385,0.605
					c0.979,0.406,1.795,0.984,2.447,1.729c0.656,0.74,1.154,1.631,1.49,2.678c0.342,1.049,0.508,2.199,0.508,3.465v14.229h-4.109
					v-14.229c0-1.689-0.406-3.004-1.215-3.939c-0.809-0.932-2.045-1.402-3.707-1.402c-1.219,0-2.355,0.279-3.41,0.844
					c-1.055,0.555-2.029,1.312-2.926,2.268v16.459H1070.148z"/>
			</g>
			<g id="Agency_1_">
				<path fill="#C4C5D2" d="M1141.896,201.705h-3.467c-0.398,0-0.723-0.092-0.967-0.283c-0.248-0.191-0.434-0.434-0.557-0.73
					l-3.096-7.635h-14.859l-3.098,7.635c-0.107,0.264-0.291,0.502-0.555,0.707c-0.262,0.205-0.584,0.307-0.969,0.307h-3.467
					l13.24-31.619h4.553L1141.896,201.705z M1120.199,189.969h12.363l-5.201-12.863c-0.338-0.797-0.668-1.783-0.994-2.98
					c-0.17,0.605-0.336,1.16-0.496,1.666c-0.164,0.508-0.316,0.951-0.471,1.338L1120.199,189.969z"/>
				<path fill="#C4C5D2" d="M1157.934,178.979c1.018,0,1.969,0.111,2.855,0.32c0.885,0.215,1.689,0.527,2.412,0.936h6.355v1.459
					c0,0.484-0.32,0.795-0.969,0.932l-2.656,0.354c0.521,0.955,0.783,2.016,0.783,3.195c0,1.09-0.219,2.082-0.658,2.971
					c-0.439,0.891-1.047,1.648-1.826,2.283c-0.777,0.627-1.701,1.111-2.771,1.453c-1.074,0.34-2.246,0.506-3.525,0.506
					c-1.094,0-2.127-0.121-3.096-0.371c-0.492,0.303-0.865,0.633-1.121,0.977c-0.256,0.355-0.381,0.695-0.381,1.029
					c0,0.551,0.223,0.965,0.67,1.244s1.039,0.484,1.779,0.602c0.74,0.125,1.582,0.186,2.518,0.186c0.941,0,1.898,0,2.879,0
					c0.979,0,1.936,0.084,2.877,0.248c0.939,0.162,1.779,0.428,2.52,0.801c0.738,0.377,1.33,0.889,1.777,1.541
					c0.447,0.656,0.67,1.51,0.67,2.547c0,0.969-0.25,1.906-0.752,2.814c-0.5,0.908-1.219,1.719-2.158,2.426
					c-0.941,0.709-2.09,1.271-3.445,1.695c-1.354,0.424-2.887,0.639-4.598,0.639c-1.709,0-3.207-0.158-4.494-0.484
					s-2.354-0.76-3.201-1.305s-1.48-1.178-1.904-1.891c-0.428-0.713-0.639-1.463-0.639-2.244c0-1.1,0.367-2.041,1.1-2.814
					c0.73-0.773,1.734-1.387,3.016-1.844c-0.664-0.293-1.191-0.686-1.584-1.178c-0.391-0.49-0.586-1.146-0.586-1.971
					c0-0.326,0.061-0.656,0.184-1.006c0.123-0.346,0.311-0.686,0.562-1.025c0.258-0.334,0.566-0.66,0.938-0.969
					c0.369-0.303,0.803-0.576,1.295-0.814c-1.156-0.615-2.061-1.436-2.715-2.455c-0.656-1.023-0.982-2.221-0.982-3.59
					c0-1.09,0.219-2.078,0.66-2.967c0.438-0.891,1.051-1.648,1.834-2.273c0.785-0.623,1.723-1.107,2.811-1.443
					C1155.449,179.15,1156.641,178.979,1157.934,178.979z M1165.236,202.848c0-0.574-0.162-1.035-0.484-1.375
					c-0.324-0.35-0.764-0.615-1.318-0.801c-0.557-0.186-1.195-0.326-1.916-0.414c-0.725-0.094-1.488-0.141-2.287-0.141
					c-0.805,0-1.619,0-2.451,0c-0.834,0-1.625-0.098-2.383-0.297c-0.875,0.4-1.59,0.889-2.135,1.461
					c-0.547,0.574-0.822,1.258-0.822,2.055c0,0.498,0.135,0.969,0.404,1.406c0.271,0.43,0.686,0.807,1.238,1.123
					c0.553,0.32,1.25,0.568,2.09,0.75c0.842,0.191,1.832,0.279,2.969,0.279c1.109,0,2.104-0.098,2.982-0.293
					c0.879-0.197,1.621-0.471,2.229-0.834c0.609-0.359,1.076-0.787,1.4-1.281C1165.074,203.992,1165.236,203.443,1165.236,202.848z
					 M1157.934,190.783c0.832,0,1.568-0.105,2.207-0.33c0.639-0.219,1.176-0.531,1.607-0.922c0.43-0.4,0.756-0.871,0.969-1.426
					c0.215-0.553,0.324-1.158,0.324-1.82c0-1.369-0.436-2.459-1.305-3.266c-0.871-0.811-2.139-1.211-3.803-1.211
					c-1.648,0-2.908,0.4-3.777,1.211c-0.873,0.807-1.309,1.896-1.309,3.266c0,0.662,0.113,1.268,0.336,1.82
					c0.225,0.555,0.553,1.025,0.982,1.426c0.434,0.391,0.965,0.703,1.596,0.922C1156.393,190.678,1157.117,190.783,1157.934,190.783
					z"/>
				<path fill="#C4C5D2" d="M1187.559,179c1.4,0,2.691,0.229,3.881,0.676c1.186,0.447,2.211,1.096,3.074,1.943
					c0.861,0.842,1.533,1.885,2.021,3.133c0.488,1.244,0.727,2.656,0.727,4.248c0,0.619-0.07,1.029-0.207,1.234
					s-0.398,0.307-0.783,0.307h-15.576c0.029,1.416,0.23,2.643,0.6,3.689c0.371,1.043,0.879,1.914,1.523,2.613
					c0.65,0.699,1.418,1.221,2.311,1.564c0.895,0.346,1.898,0.521,3.004,0.521c1.035,0,1.922-0.111,2.672-0.344
					c0.748-0.229,1.389-0.477,1.93-0.736c0.537-0.27,0.988-0.512,1.352-0.74c0.361-0.229,0.672-0.34,0.936-0.34
					c0.338,0,0.602,0.125,0.787,0.371l1.154,1.436c-0.508,0.586-1.117,1.1-1.828,1.531c-0.709,0.434-1.465,0.793-2.273,1.072
					s-1.646,0.488-2.508,0.629c-0.861,0.139-1.717,0.215-2.564,0.215c-1.619,0-3.109-0.266-4.473-0.787
					c-1.361-0.523-2.543-1.287-3.533-2.297c-0.996-1.006-1.77-2.254-2.324-3.74s-0.834-3.189-0.834-5.119
					c0-1.559,0.252-3.018,0.75-4.367c0.504-1.355,1.223-2.529,2.164-3.521c0.939-0.992,2.088-1.77,3.443-2.344
					C1184.34,179.285,1185.863,179,1187.559,179z M1187.648,181.893c-1.986,0-3.549,0.551-4.689,1.645
					c-1.139,1.1-1.848,2.613-2.127,4.555h12.734c0-0.908-0.131-1.742-0.393-2.5c-0.266-0.756-0.646-1.412-1.156-1.967
					c-0.508-0.549-1.129-0.977-1.859-1.275C1189.426,182.043,1188.59,181.893,1187.648,181.893z"/>
				<path fill="#C4C5D2" d="M1207.129,201.705v-22.35h2.451c0.584,0,0.955,0.273,1.107,0.818l0.324,2.428
					c1.016-1.076,2.152-1.943,3.408-2.609c1.258-0.66,2.707-0.992,4.357-0.992c1.275,0,2.406,0.211,3.385,0.605
					c0.977,0.406,1.795,0.984,2.447,1.729c0.656,0.74,1.152,1.631,1.492,2.678c0.34,1.049,0.508,2.199,0.508,3.465v14.229h-4.113
					v-14.229c0-1.689-0.404-3.004-1.211-3.939c-0.811-0.932-2.047-1.402-3.713-1.402c-1.213,0-2.352,0.279-3.404,0.844
					c-1.057,0.555-2.031,1.312-2.924,2.268v16.459H1207.129z"/>
				<path fill="#C4C5D2" d="M1253.414,183.328c-0.121,0.162-0.246,0.289-0.369,0.377s-0.301,0.131-0.531,0.131
					s-0.482-0.094-0.752-0.275s-0.611-0.387-1.027-0.605c-0.414-0.225-0.92-0.424-1.514-0.605c-0.592-0.186-1.32-0.279-2.186-0.279
					c-1.137,0-2.146,0.195-3.025,0.586c-0.877,0.387-1.613,0.951-2.207,1.688c-0.592,0.734-1.039,1.625-1.34,2.672
					c-0.301,1.039-0.449,2.213-0.449,3.508c0,1.35,0.16,2.553,0.484,3.609c0.324,1.049,0.777,1.928,1.363,2.645
					c0.586,0.713,1.297,1.258,2.135,1.631c0.842,0.377,1.787,0.564,2.832,0.564c1.002,0,1.826-0.113,2.471-0.346
					c0.648-0.223,1.189-0.479,1.621-0.76c0.43-0.279,0.785-0.529,1.062-0.758s0.555-0.34,0.832-0.34
					c0.354,0,0.617,0.125,0.787,0.371l1.152,1.436c-1.018,1.188-2.287,2.062-3.812,2.613c-1.523,0.553-3.135,0.834-4.826,0.834
					c-1.467,0-2.824-0.266-4.082-0.779c-1.254-0.516-2.346-1.262-3.268-2.24c-0.926-0.977-1.654-2.18-2.188-3.604
					c-0.525-1.43-0.795-3.057-0.795-4.877c0-1.662,0.242-3.199,0.729-4.615c0.484-1.412,1.191-2.627,2.125-3.646
					c0.932-1.025,2.084-1.826,3.455-2.398c1.371-0.574,2.943-0.863,4.713-0.863c1.635,0,3.082,0.258,4.346,0.766
					c1.264,0.506,2.381,1.225,3.35,2.15L1253.414,183.328z"/>
				<path fill="#C4C5D2" d="M1270.516,208.305c-0.139,0.295-0.312,0.531-0.52,0.709c-0.209,0.176-0.529,0.266-0.959,0.266h-3.053
					l4.277-8.873l-9.66-21.051h3.559c0.354,0,0.631,0.084,0.832,0.25c0.199,0.174,0.346,0.363,0.439,0.568l6.262,14.076
					c0.141,0.326,0.256,0.646,0.359,0.973c0.098,0.322,0.186,0.652,0.266,0.992c0.107-0.34,0.213-0.67,0.322-0.992
					c0.109-0.326,0.23-0.656,0.371-0.992l6.076-14.057c0.094-0.236,0.25-0.432,0.473-0.586c0.225-0.154,0.469-0.232,0.73-0.232
					h3.279L1270.516,208.305z"/>
			</g>
		</g>
	</g>
</g>
</svg>
